<svg width="400" height="400" viewBox="0 0 400 400" fill="none" xmlns="http://www.w3.org/2000/svg">
<path d="M106.62 310.33L76.6001 349" stroke="#6A0BFF" stroke-width="12" stroke-miterlimit="10" stroke-linecap="round" stroke-linejoin="round"/>
<path d="M293.38 310.33L323.4 349" stroke="#6A0BFF" stroke-width="12" stroke-miterlimit="10" stroke-linecap="round" stroke-linejoin="round"/>
<path d="M200 345.21C275.21 345.21 336.18 284.24 336.18 209.03C336.18 133.82 275.21 72.8501 200 72.8501C124.79 72.8501 63.8201 133.82 63.8201 209.03C63.8201 284.24 124.79 345.21 200 345.21Z" stroke="#191919" stroke-width="12" stroke-miterlimit="10" stroke-linecap="round" stroke-linejoin="round"/>
<path d="M200 209.03L252.35 183.22" stroke="#6A0BFF" stroke-width="12" stroke-miterlimit="10" stroke-linecap="round" stroke-linejoin="round"/>
<path d="M200 118.91V209.03" stroke="#6A0BFF" stroke-width="12" stroke-miterlimit="10" stroke-linecap="round" stroke-linejoin="round"/>
<path d="M200 72.8499V49.95" stroke="#191919" stroke-width="12" stroke-miterlimit="10" stroke-linecap="round" stroke-linejoin="round"/>
<path d="M185.32 49H214.68" stroke="#191919" stroke-width="12" stroke-miterlimit="10" stroke-linecap="round" stroke-linejoin="round"/>
<path d="M336.69 121.02C321.03 96.7101 298.94 76.5601 272.24 63.3501" stroke="#191919" stroke-width="12" stroke-miterlimit="10" stroke-linecap="round" stroke-linejoin="round"/>
<path d="M336.69 121.02C321.03 96.7101 298.94 76.5601 272.24 63.3501" stroke="#191919" stroke-width="12" stroke-miterlimit="10" stroke-linecap="round" stroke-linejoin="round"/>
<path d="M272.29 63.38C280.2 54.56 291.68 49 304.47 49C328.32 49 347.65 68.33 347.65 92.18C347.65 103.24 343.49 113.33 336.65 120.98" stroke="#191919" stroke-width="12" stroke-miterlimit="10" stroke-linecap="round" stroke-linejoin="round"/>
<path d="M63.3101 121.02C78.9701 96.7101 101.06 76.5601 127.76 63.3501" stroke="#191919" stroke-width="12" stroke-miterlimit="10" stroke-linecap="round" stroke-linejoin="round"/>
<path d="M63.3101 121.02C78.9701 96.7101 101.06 76.5601 127.76 63.3501" stroke="#191919" stroke-width="12" stroke-miterlimit="10" stroke-linecap="round" stroke-linejoin="round"/>
<path d="M127.71 63.38C119.8 54.56 108.32 49 95.5301 49C71.6801 49 52.3501 68.33 52.3501 92.18C52.3501 103.24 56.5101 113.33 63.3501 120.98" stroke="#191919" stroke-width="12" stroke-miterlimit="10" stroke-linecap="round" stroke-linejoin="round"/>
</svg>
